<svg xmlns="http://www.w3.org/2000/svg" width="17" height="18" viewBox="0 0 17 18" fill="none">
<path fill-rule="evenodd" clip-rule="evenodd" d="M0.132812 2.4999C0.132812 1.2148 1.07422 0.250977 2.43404 0.250977C3.79385 0.250977 4.63066 1.2148 4.63066 2.4999C4.63066 3.785 3.68925 4.74883 2.32944 4.74883C0.969622 4.74883 0.132812 3.785 0.132812 2.4999ZM0.132812 5.87207H3.5062V17.1167H0.132812V5.87207ZM12.8068 5.87207C10.8057 5.87207 9.94804 6.96026 9.47157 7.68572V6.14412H5.75513C5.85042 7.14162 5.75513 17.1167 5.75513 17.1167H9.47157V10.9503C9.47157 10.5876 9.47157 10.3155 9.56686 10.0435C9.85275 9.40869 10.4245 8.68323 11.4727 8.68323C12.8068 8.68323 13.3786 9.68073 13.3786 11.1317V17.1167H16.9998V10.7689C16.9998 7.41367 15.1892 5.87207 12.8068 5.87207Z"></path>
</svg>