<svg class="rotate-svg" version="1.1" id="Layer_1" xmlns="http://www.w3.org/2000/svg" xmlns:xlink="http://www.w3.org/1999/xlink" x="0px" y="0px" viewBox="0 0 700 700" style="enable-background:new 0 0 700 700;" xml:space="preserve" width="70" height="70">
<style type="text/css">
            .rotate-svg .st0 {
                fill: #FFFFFF;
            }
    
            .rotate-svg .st1 {
                fill-rule: evenodd;
                clip-rule: evenodd;
                fill: #FFFFFF;
            }
        </style>
<path class="st0" d="M261.7,61.4H52.3C23.5,61.4,0,84.8,0,113.7v460.6c0,28.9,23.5,52.3,52.3,52.3h209.4c28.9,0,52.3-23.5,52.3-52.3
        	V113.7C314.1,84.8,290.6,61.4,261.7,61.4z M293.1,574.3c0,17.3-14.1,31.4-31.4,31.4H52.3c-17.3,0-31.4-14.1-31.4-31.4V113.7
        	c0-17.3,14.1-31.4,31.4-31.4h209.4c17.3,0,31.4,14.1,31.4,31.4V574.3z"></path>
<path class="st0" d="M178,542.9h-41.9c-5.8,0-10.5,4.7-10.5,10.5c0,5.8,4.7,10.5,10.5,10.5H178c5.8,0,10.5-4.7,10.5-10.5
        	C188.4,547.6,183.7,542.9,178,542.9z"></path>
<path class="st0" d="M647.7,312.6h-343c1.7,5.1,2.7,10.6,3,16.1c0.1,1.6,0,3.2-0.1,4.8h340.1c17.3,0,31.4,14.1,31.4,31.4v209.4
        	c0,17.3-14.1,31.4-31.4,31.4H196.2c-9.8,8.3-22.3,13.4-35.1,13.4c-0.4,0-0.9,0-1.3,0c7.9,4.8,17.2,7.6,27.2,7.6h460.6
        	c28.9,0,52.3-23.5,52.3-52.3V364.9C700,336.1,676.5,312.6,647.7,312.6z"></path>
<circle class="st0" cx="151.7" cy="109.3" r="9"></circle>
<circle class="st0" cx="645.6" cy="460.4" r="9"></circle>
<path class="st1" d="M484.5,275.6c22.3-65.1-26.9-132.1-92.9-134l-0.5-15.1c-0.2-2.4-2.6-3.6-4.8-2.4l-42.3,26.4
        	c-1.9,1.2-1.9,4.1,0.2,5.3l43.9,23.3c2.2,1.2,4.6-0.2,4.6-2.6l-0.5-15.8c52.8,2.6,91.7,55.7,74.4,108.3
        	C463.2,278.9,480.5,287.8,484.5,275.6L484.5,275.6z"></path>
</svg>