<svg xmlns="http://www.w3.org/2000/svg" viewBox="0 0 217 32" fill="none">
<path fill-rule="evenodd" clip-rule="evenodd" d="M40.1331 14.6703H52.8863C55.7684 14.6703 58.1461 16.986 58.1461 19.8135V31.5868H39.0763C37.323 31.5868 35.882 30.173 35.882 28.4424C35.882 27.0773 35.882 25.7123 35.882 24.3473C35.882 22.7385 37.227 21.4223 38.8602 21.4223H49.4278L48.299 23.8111H40.5174C40.1811 23.8111 39.7968 24.0792 39.7968 24.4448C39.7968 25.5173 39.7968 26.5898 39.7968 27.6623C39.7968 28.028 40.1811 28.2961 40.5174 28.2961H54.0151V20.5691C54.0151 19.0822 52.6942 17.9366 51.2291 17.9366H38.5719L40.1331 14.6703ZM144.873 8.52775V31.6111H126.284C124.53 31.6111 123.089 30.1974 123.089 28.4667C123.089 25.5904 123.089 22.7142 123.089 19.8135C123.089 16.986 125.467 14.6703 128.349 14.6703H138.941L137.38 17.961H129.982C128.517 17.961 127.196 19.1066 127.196 20.5935C127.196 22.9579 127.196 25.3223 127.196 27.6867C127.196 28.0523 127.58 28.3205 127.917 28.3205H140.742V8.52775H144.873ZM79.5697 31.6111H83.6766C83.6766 27.6867 83.6766 23.7623 83.6766 19.8379C83.6766 17.0103 81.2989 14.6947 78.4168 14.6947H69.6745L68.1133 17.9854H76.7836C78.2487 17.9854 79.5697 19.131 79.5697 20.6179V31.6111ZM62.4452 8.52775V31.6111H66.5522V8.52775H62.4452ZM28.1244 31.6111H32.2314C32.2314 27.6867 32.2314 23.7623 32.2314 19.8379C32.2314 17.0103 29.8536 14.6947 26.9715 14.6947C18.8537 14.6947 8.11788 14.6947 0 14.6947V31.6111H4.10698V18.5947C4.10698 18.2291 4.49126 17.961 4.8275 17.961C7.22924 17.961 10.9279 17.961 13.3297 17.961C13.6659 17.961 14.0502 18.2291 14.0502 18.5947V31.6111H18.1572V18.5947C18.1572 18.2291 18.5414 17.961 18.8777 17.961C20.5829 17.961 23.6091 17.961 25.3384 17.961C26.8034 17.961 28.1244 19.1066 28.1244 20.5935V31.6111ZM166.345 14.6703H156.017C153.135 14.6703 150.757 16.986 150.757 19.8135V31.5868H154.864C154.864 27.9305 154.864 24.2498 154.864 20.5935C154.864 19.1066 156.185 17.961 157.65 17.961H164.783L166.345 14.6703ZM113.674 14.6703C116.556 14.6703 118.934 16.986 118.934 19.8135V31.5868H114.827C114.827 27.9305 114.827 24.2498 114.827 20.5935C114.827 19.1066 113.506 17.961 112.041 17.961H102.146V31.6111H98.039V14.6947C103.227 14.6947 108.439 14.6703 113.674 14.6703ZM88.7923 15.7428L92.8993 13.3541V31.5868H88.7923V15.7428ZM92.9233 10.9897V8.479H88.8164V13.3541L92.9233 10.9897ZM169.227 14.6703H181.956C184.838 14.6703 187.216 16.986 187.216 19.8135V31.5868H168.146C166.393 31.5868 164.952 30.173 164.952 28.4424C164.952 27.0773 164.952 25.7123 164.952 24.3473C164.952 22.7385 166.296 21.4223 167.93 21.4223H178.497L177.368 23.8111H169.587C169.251 23.8111 168.866 24.0792 168.866 24.4448C168.866 25.5173 168.866 26.5898 168.866 27.6623C168.866 28.028 169.251 28.2961 169.587 28.2961H183.085V20.5691C183.085 19.0822 181.764 17.9366 180.299 17.9366H167.641L169.227 14.6703Z"></path>
<path fill-rule="evenodd" clip-rule="evenodd" d="M213.635 4.89609H214.283C215.172 4.89609 215.772 5.06672 215.604 6.09048C215.46 6.94362 215.004 7.21174 214.428 7.21174H211.906C212.098 5.96861 212.17 4.89609 213.635 4.89609ZM189.449 1.92231H192.476C193.845 1.92231 194.493 2.48294 194.277 3.87233C194.037 5.45673 192.74 5.84673 191.347 5.84673H188.873L189.449 1.92231ZM191.155 6.65112L193.364 11.063H194.973L192.548 6.48049C194.037 6.30986 195.31 5.87111 195.622 3.87233C195.862 2.21482 195.021 0.97168 193.172 0.97168H188.201C187.696 4.33547 187.192 7.69925 186.711 11.063H188.152L188.801 6.67549H191.155V6.65112ZM208.351 4.11609L207.847 4.96922C207.006 4.96922 206.021 4.96922 205.181 4.96922C204.797 4.96922 204.292 4.9936 204.052 5.21297C203.812 5.40798 203.692 5.87111 203.788 6.18798C203.908 6.60236 204.412 6.72424 204.869 6.84612L207.126 7.38237C208.207 7.6505 208.807 8.35738 208.591 9.50302C208.351 10.7705 207.486 11.1118 206.31 11.1118H201.698L202.203 10.2587H205.301C206.166 10.2587 206.958 10.2343 207.15 9.21052C207.294 8.45489 206.502 8.18676 205.925 8.04051L203.692 7.50425C202.707 7.2605 202.155 6.62674 202.347 5.60298C202.563 4.43297 203.331 4.11609 204.412 4.11609H208.351ZM198.936 1.77606H200.377L200.233 2.65357L198.672 3.55546L198.936 1.77606ZM198.504 4.74985L200.065 3.84796L198.984 11.0387H197.567L198.504 4.74985ZM210.585 7.21174C210.321 9.03989 209.984 11.0874 212.65 11.0874H215.628L216.133 10.2343H213.515C211.593 10.2343 211.521 9.47865 211.762 7.96738H214.74C216.109 7.96738 216.733 7.6505 216.973 6.06611C217.19 4.77422 216.061 3.99421 214.836 3.99421H213.611C211.449 4.01859 210.897 5.40798 210.585 7.21174Z"></path>
</svg>