<svg xmlns="http://www.w3.org/2000/svg" width="27" height="19" viewBox="0 0 27 19" fill="none">
<path d="M25.8286 3.03876C25.532 1.94099 24.658 1.07659 23.5481 0.783235C21.5361 0.25 13.4694 0.25 13.4694 0.25C13.4694 0.25 5.40274 0.25 3.39077 0.783235C2.28106 1.07659 1.40685 1.94099 1.11019 3.03876C0.571289 5.02839 0.571289 9.17966 0.571289 9.17966C0.571289 9.17966 0.571289 13.3309 1.11019 15.3204C1.40685 16.4181 2.28106 17.2827 3.39077 17.5761C5.40274 18.1091 13.4694 18.1091 13.4694 18.1091C13.4694 18.1091 21.5361 18.1091 23.5481 17.5761C24.658 17.2827 25.532 16.4181 25.8286 15.3204C26.3678 13.3309 26.3678 9.17966 26.3678 9.17966C26.3678 9.17966 26.3678 5.02839 25.8286 3.03876Z"></path>
<path d="M11.4854 13.1483L18.4306 9.17963L11.4854 5.21094L11.4854 13.1483Z" id="bg"></path>
</svg>