<svg width="21" height="21" viewBox="0 0 21 21" fill="none" xmlns="http://www.w3.org/2000/svg">
<path fill-rule="evenodd" clip-rule="evenodd" d="M5.9248 10.5175C5.9248 7.76578 8.1727 5.55664 10.8857 5.55664C13.5986 5.55664 15.8465 7.80453 15.8465 10.5175C15.8465 13.2305 13.6374 15.4784 10.8857 15.4784C8.13394 15.4784 5.9248 13.2692 5.9248 10.5175ZM7.70801 10.5179C7.70801 12.262 9.14201 13.696 10.8861 13.696C12.6301 13.696 14.0641 12.262 14.0641 10.5179C14.0641 8.77384 12.6301 7.33984 10.8861 7.33984C9.14201 7.33984 7.70801 8.77384 7.70801 10.5179Z" fill="url(#insta_717_16469)"></path>
<circle cx="15.8467" cy="5.55663" r="0.992173" fill="url(#insta_717_16469)"></circle>
<path fill-rule="evenodd" clip-rule="evenodd" d="M15.0063 0.595703C16.6866 0.595703 18.1669 1.1558 19.2071 2.23599C20.2472 3.27617 20.8073 4.71642 20.8073 6.39672V14.6382C20.8073 16.3585 20.2472 17.8387 19.167 18.8789C18.1269 19.8791 16.6866 20.4392 14.9663 20.4392H6.80489C5.1646 20.4392 3.72435 19.9191 2.64416 18.8789C1.52397 17.7987 0.963867 16.3184 0.963867 14.5981V6.39672C0.963867 2.91611 3.28427 0.595703 6.76488 0.595703H15.0063ZM17.8873 17.5592C18.6074 16.879 18.9675 15.8789 18.9675 14.6387H19.0475V6.39721C19.0475 5.23701 18.6475 4.23684 17.9673 3.51671C17.2472 2.79659 16.247 2.43652 15.0468 2.43652H6.80539C5.60518 2.43652 4.56499 2.79659 3.88488 3.4767C3.16475 4.19683 2.80469 5.19701 2.80469 6.39721V14.5986C2.80469 15.8389 3.16475 16.839 3.88488 17.5592C4.605 18.2393 5.60518 18.5993 6.80539 18.5993H14.9668C16.167 18.5993 17.1672 18.2393 17.8873 17.5592Z" fill="url(#insta_717_16469)"></path>
<defs>
<linearGradient id="insta_717_16469" x1="14.1929" y1="6.09717" x2="7.69287" y2="15.5972" gradientUnits="userSpaceOnUse">
<stop stop-color="#A028AB"></stop>
<stop offset="0.46875" stop-color="#EE413F"></stop>
<stop offset="1" stop-color="#FDB00D"></stop>
</linearGradient>
<linearGradient id="insta_717_16469" x1="16.5081" y1="4.67256" x2="15.2081" y2="6.57256" gradientUnits="userSpaceOnUse">
<stop stop-color="#A028AB"></stop>
<stop offset="0.46875" stop-color="#EE413F"></stop>
<stop offset="1" stop-color="#FDB00D"></stop>
</linearGradient>
<linearGradient id="insta_717_16469" x1="17.5" y1="1.67676" x2="4.5" y2="20.6768" gradientUnits="userSpaceOnUse">
<stop stop-color="#A028AB"></stop>
<stop offset="0.46875" stop-color="#EE413F"></stop>
<stop offset="1" stop-color="#FDB00D"></stop>
</linearGradient>
</defs>
</svg>