<svg version="1.1" id="Layer_1" xmlns="http://www.w3.org/2000/svg" xmlns:xlink="http://www.w3.org/1999/xlink" x="0px" y="0px" viewBox="0 0 48 38.4" style="enable-background:new 0 0 48 38.4;" xml:space="preserve" width="21" height="21">
<path d="M3.6,38.4c-1,0-1.8-0.4-2.5-1.1S0,35.8,0,34.8V3.6c0-1,0.4-1.8,1.1-2.5S2.6,0,3.6,0h40.8c1,0,1.8,0.4,2.5,1.1
                        	C47.6,1.8,48,2.6,48,3.6v31.2c0,1-0.4,1.8-1.1,2.5c-0.7,0.7-1.6,1.1-2.5,1.1H3.6z M24,20.3L3.6,6.9v27.9h40.8V6.9L24,20.3z M24,16.7
                        	L44.2,3.6H3.9L24,16.7z M3.6,6.9V3.6v31.2V6.9z"></path>
</svg>